<svg width="21" height="20" viewBox="0 0 21 20" fill="none" xmlns="http://www.w3.org/2000/svg">
<path d="M19.9999 18.6737C19.9999 19.4058 19.4058 20 18.6737 20C17.9416 20 17.3474 19.4058 17.3474 18.6737C17.3474 17.9416 17.9416 17.3475 18.6737 17.3475C19.4058 17.3475 19.9999 17.9416 19.9999 18.6737Z" fill="black" class="fill-color"/>
<path d="M4.72149 18.6737C4.72149 19.4058 4.12733 20 3.39523 20C2.66313 20 2.06897 19.4058 2.06897 18.6737C2.06897 17.9416 2.66313 17.3475 3.39523 17.3475C4.12733 17.3475 4.72149 17.9416 4.72149 18.6737Z" fill="black"  class="fill-color"/>
<path d="M3.38992 1.69761L2.80106 0H0V0.901857H2.2122L5.2626 12.2175C3.54377 12.817 2.08488 14.2281 1.79841 16.0955C1.69761 16.7162 1.69761 16.9761 1.69761 16.9761H20.3714V16.0902H2.72149C2.97082 14.4138 4.77984 13.008 6.65252 12.7745C8.5252 12.5411 19.5597 10.9602 19.5597 10.9602L20.3714 1.69761H3.38992Z" fill="black"  class="fill-color"/>
</svg>
