<svg width="58" height="80" viewBox="0 0 58 80" fill="none" xmlns="http://www.w3.org/2000/svg">
<path d="M30.4915 1.59185C15.4696 1.00709 2.68886 14.3938 2.02449 31.461C1.39489 47.6347 23.1165 74.6135 25.5925 77.641C26.115 78.2476 26.7846 78.5822 27.4934 78.6098C28.2023 78.6374 28.8958 78.3558 29.4639 77.7917C32.1678 74.9659 55.9209 49.7573 56.5505 33.5835C57.2148 16.5163 45.5134 2.1766 30.4915 1.59185Z" fill="#0D0DFF"/>
<path d="M38.9125 30.7944C38.6937 36.4174 33.9395 40.84 28.291 40.6201C22.6424 40.4002 18.2464 35.6215 18.4653 29.9985C18.6852 24.3499 23.4384 19.953 29.0869 20.1728C34.7355 20.3927 39.1324 25.1459 38.9125 30.7944Z" fill="#FF8A00"/>
</svg>
