<svg width="65" height="65" viewBox="0 0 65 65" fill="none" xmlns="http://www.w3.org/2000/svg">
<circle cx="32.4983" cy="32.4967" r="31.5" transform="rotate(0.272354 32.4983 32.4967)" fill="white" />
<path d="M32.6481 0.997039C15.2513 0.914343 1.0814 14.9501 0.998704 32.3469C0.916008 49.7438 14.9518 63.9136 32.3486 63.9963C49.7454 64.079 63.9153 50.0432 63.998 32.6464C64.0807 15.2496 50.0449 1.07973 32.6481 0.997039ZM47.1468 22.4887C46.6491 27.4674 44.5405 39.5447 43.4701 45.1185C43.0174 47.4768 42.144 48.2643 41.3021 48.3376C39.4723 48.4973 38.0895 47.1135 36.3233 45.9437C33.5596 44.1132 31.9988 42.9744 29.316 41.1882C26.2158 39.1241 28.2373 38.0077 30.0184 36.1744C30.4845 35.6948 38.5791 28.4022 38.7382 27.7379C38.7581 27.6548 38.7782 27.3443 38.5943 27.1804C38.4104 27.0164 38.1388 27.0704 37.9424 27.1138C37.6641 27.1756 33.2213 30.0819 24.6139 35.8327C23.3528 36.6899 22.2121 37.1051 21.1919 37.0782C20.0673 37.0486 17.9068 36.4267 16.3009 35.8962C14.3313 35.2456 12.765 34.8992 12.9068 33.8108C12.9806 33.2438 13.7645 32.6675 15.2584 32.0818C24.4603 28.1247 30.5961 25.5161 33.6659 24.2561C42.431 20.6591 44.2517 20.0357 45.4366 20.0203C45.6973 20.0172 46.2796 20.0845 46.6555 20.3925C46.9055 20.6119 47.064 20.917 47.0998 21.2477C47.1618 21.6583 47.1776 22.0746 47.1468 22.4887Z" fill="#FF8A00" class="fill-color"/>
</svg>
