<svg width="64" height="64" viewBox="0 0 64 64" fill="none" xmlns="http://www.w3.org/2000/svg">
<path d="M31.7471 63.4688C49.1438 63.5515 63.3137 49.5157 63.3964 32.1189C63.4791 14.7221 49.4433 0.552231 32.0465 0.469535C14.6497 0.386839 0.479837 14.4227 0.397141 31.8194C0.314446 49.2162 14.3503 63.3861 31.7471 63.4688Z" fill="#FF8A00" class="fill-color"/>
<path fill-rule="evenodd" clip-rule="evenodd" d="M30.6405 45.7791L33.1128 45.7909C33.1128 45.7909 33.86 45.7125 34.2432 45.3032C34.596 44.9276 34.5881 44.2189 34.5881 44.2189C34.5881 44.2189 34.5556 40.9013 36.0976 40.4201C37.6176 39.9461 39.5491 43.6428 41.6082 45.0704C43.1652 46.1509 44.3533 45.9212 44.3533 45.9212L49.8773 45.8706C49.8773 45.8706 52.7677 45.7063 51.4084 43.4279C51.297 43.2415 50.6185 41.7435 47.3241 38.6563C43.876 35.4252 44.3373 35.9474 48.5358 30.4066C51.0927 27.0322 52.1183 24.9695 51.8053 24.0825C51.5066 23.2377 49.6368 23.4517 49.6368 23.4517L43.4174 23.4609C43.4174 23.4609 42.9567 23.3958 42.6137 23.5986C42.2787 23.7975 42.0614 24.2636 42.0614 24.2636C42.0614 24.2636 41.0646 26.8795 39.7412 29.1019C36.9495 33.7914 35.841 34.0343 35.3898 33.7402C34.3402 33.0546 34.6128 31.0024 34.6197 29.5436C34.6414 24.9864 35.3416 23.0895 33.3068 22.588C32.6315 22.4213 32.1345 22.3112 30.4057 22.2855C28.1867 22.252 26.3083 22.2728 25.2423 22.7888C24.5332 23.1319 23.9837 23.9014 24.3159 23.9473C24.7267 24.0043 25.6568 24.2047 26.1471 24.8792C26.7803 25.7492 26.7486 27.6964 26.7486 27.6964C26.7486 27.6964 27.0892 33.0628 25.8648 33.7235C25.0243 34.1766 23.8787 33.2379 21.43 28.9598C20.1753 26.7684 19.2317 24.3483 19.2317 24.3483C19.2317 24.3483 19.0497 23.8959 18.7223 23.6529C18.325 23.3585 17.7685 23.2626 17.7685 23.2626L11.8584 23.2733C11.8584 23.2733 10.9711 23.2938 10.6436 23.678C10.3522 24.0197 10.6155 24.7307 10.6155 24.7307C10.6155 24.7307 15.1909 35.5775 20.4039 41.0575C25.1838 46.0817 30.6405 45.7791 30.6405 45.7791Z" fill="white"/>
</svg>
