<svg width="64" height="64" viewBox="0 0 64 64" fill="none" xmlns="http://www.w3.org/2000/svg">
<circle cx="31.6494" cy="31.6494" r="31.5" transform="rotate(0.272354 31.6494 31.6494)" fill="white" class="fill-color"/>
<path d="M32.3159 15.0768C23.4022 15.0345 16.1194 22.0496 16.0748 30.7145C16.0593 33.6841 16.9 36.5801 18.5057 39.09L18.8872 39.6864L17.2271 45.4778L23.3507 43.9466L23.939 44.29C26.4134 45.7336 29.2538 46.5048 32.1534 46.5198L32.16 46.5198C41.067 46.5621 48.3496 39.5464 48.3943 30.8807C48.416 26.6815 46.7554 22.7249 43.7187 19.7398C40.6818 16.755 36.6321 15.0986 32.3159 15.0768ZM41.7143 37.5935C41.3043 38.6951 39.3586 39.6931 38.4245 39.8243C37.5869 39.9421 36.5276 39.9877 35.3656 39.6226C34.6611 39.4015 33.7577 39.1064 32.6009 38.6142C27.7373 36.5445 24.5772 31.7575 24.3359 31.4409C24.0946 31.1245 22.3644 28.8697 22.3755 26.544C22.3865 24.2188 23.6471 23.0816 24.0946 22.6107C24.5419 22.14 25.0689 22.0242 25.3927 22.0257C25.7166 22.0273 26.0408 22.0317 26.3237 22.0468C26.6218 22.0629 27.0229 21.94 27.413 22.863C27.8132 23.811 28.7737 26.1412 28.8941 26.3783C29.0145 26.6152 29.0941 26.8916 28.9307 27.2061C28.7673 27.5204 28.6855 27.7173 28.4412 27.9919C28.1971 28.2667 27.928 28.6055 27.7086 28.8161C27.4642 29.0506 27.2098 29.3051 27.4909 29.7793C27.7721 30.2538 28.7397 31.8054 30.178 33.0651C32.0258 34.6835 33.5888 35.1898 34.0735 35.4287C34.5581 35.6676 34.8418 35.6292 35.1266 35.3155C35.4115 35.0015 36.3476 33.9416 36.6737 33.4702C36.9998 32.9989 37.3233 33.0793 37.7678 33.239C38.2123 33.399 40.5954 34.5531 41.08 34.7918C41.5647 35.0306 41.8879 35.1505 42.0084 35.3482C42.1289 35.5456 42.1244 36.4916 41.7143 37.5935Z" fill="#FF8A00"  />
<path d="M31.7998 0.14974C14.4032 0.0670448 0.232438 14.1014 0.149741 31.4984C0.0670448 48.8953 14.1037 63.0663 31.5003 63.149C48.8956 63.2317 63.0663 49.1948 63.149 31.7978C63.2317 14.4009 49.1951 0.232428 31.7998 0.14974ZM32.2546 49.8842C32.254 49.8842 32.255 49.8842 32.2546 49.8842L32.2468 49.8842C29.0824 49.868 25.9765 49.0592 23.2221 47.5397L13.1862 50.1214L15.9153 40.3361C14.2743 37.4607 13.4191 34.2039 13.4364 30.8712C13.49 20.4461 22.0126 12.0046 32.4343 12.0542C37.4923 12.0803 42.2304 14.0719 45.7832 17.6629C49.336 21.2538 51.2784 26.0137 51.2525 31.0661C51.1985 41.4914 42.6754 49.9337 32.2546 49.8842Z" fill="#FF8A00" class="fill-color"/>
</svg>
