<svg width="67" height="55" viewBox="0 0 67 55" fill="none" xmlns="http://www.w3.org/2000/svg">
<g filter="url(#filter0_d_195_209)">
<path d="M63 25.6364V40.591C63 41.766 62.115 42.7273 61.0333 42.7273H41.3667C40.285 42.7273 39.4 41.766 39.4 40.591V14.9546C39.4 13.7796 40.285 12.8182 41.3667 12.8182H53.1667C53.7567 12.8182 54.327 13.1173 54.7007 13.6301L62.5673 24.2905C62.6657 24.4401 62.764 24.611 62.8427 24.7819C62.8427 24.8032 62.8427 24.8032 62.8427 24.8032C62.8427 24.8032 62.8427 24.8032 62.8427 24.8246C62.9607 25.081 63 25.3587 63 25.6364Z" fill="#FF8A00"/>
<path d="M43.3333 2.13636V42.7273H17.7667C16.685 42.7273 15.8 41.7659 15.8 40.5909V2.13636C15.8 0.961364 16.685 0 17.7667 0H41.3667C42.4483 0 43.3333 0.961364 43.3333 2.13636Z" fill="url(#paint0_linear_195_209)"/>
<path d="M63 25.6364V25.6578L51.2 25.6364V12.8182H53.1667C53.7567 12.8182 54.327 13.1173 54.7007 13.6301L62.5673 24.2905C62.6657 24.4401 62.764 24.611 62.8427 24.7819C62.8427 24.8032 62.8427 24.8032 62.8427 24.8032C62.8427 24.8032 62.8427 24.8032 62.8427 24.8246C62.9607 25.081 63 25.3587 63 25.6364Z" fill="#C4C4C4"/>
<path d="M57.1 40.5909C57.1 44.1159 54.445 46.9999 51.2 46.9999C47.955 46.9999 45.3 44.1159 45.3 40.5909C45.3 37.0659 47.955 34.1818 51.2 34.1818C54.445 34.1818 57.1 37.0659 57.1 40.5909Z" fill="#003F86"/>
<path d="M35.4667 40.5909C35.4667 44.1159 32.8117 46.9999 29.5667 46.9999C26.3217 46.9999 23.6667 44.1159 23.6667 40.5909C23.6667 37.0659 26.3217 34.1818 29.5667 34.1818C32.8117 34.1818 35.4667 37.0659 35.4667 40.5909Z" fill="#003F86"/>
<path d="M27.6 12.8181H5.96667C4.88067 12.8181 4 11.8625 4 10.6818C4 9.50101 4.88067 8.54541 5.96667 8.54541H27.6C28.686 8.54541 29.5667 9.50101 29.5667 10.6818C29.5667 11.8625 28.686 12.8181 27.6 12.8181Z" fill="#FF8A00"/>
<path d="M29.5667 27.7727H11.8667C10.7807 27.7727 9.89999 26.8171 9.89999 25.6364C9.89999 24.4556 10.7807 23.5 11.8667 23.5H29.5667C30.6527 23.5 31.5333 24.4556 31.5333 25.6364C31.5333 26.8171 30.6527 27.7727 29.5667 27.7727Z" fill="#FF8A00"/>
</g>
<defs>
<filter id="filter0_d_195_209" x="0" y="0" width="67" height="55" filterUnits="userSpaceOnUse" color-interpolation-filters="sRGB">
<feFlood flood-opacity="0" result="BackgroundImageFix"/>
<feColorMatrix in="SourceAlpha" type="matrix" values="0 0 0 0 0 0 0 0 0 0 0 0 0 0 0 0 0 0 127 0" result="hardAlpha"/>
<feOffset dy="4"/>
<feGaussianBlur stdDeviation="2"/>
<feComposite in2="hardAlpha" operator="out"/>
<feColorMatrix type="matrix" values="0 0 0 0 0 0 0 0 0 0 0 0 0 0 0 0 0 0 0.25 0"/>
<feBlend mode="normal" in2="BackgroundImageFix" result="effect1_dropShadow_195_209"/>
<feBlend mode="normal" in="SourceGraphic" in2="effect1_dropShadow_195_209" result="shape"/>
</filter>
<linearGradient id="paint0_linear_195_209" x1="29.5667" y1="0" x2="40" y2="76" gradientUnits="userSpaceOnUse">
<stop stop-color="#0D0DFF"/>
<stop offset="1" stop-color="#003F86"/>
</linearGradient>
</defs>
</svg>
