<svg width="55" height="55" viewBox="0 0 55 55" fill="none" xmlns="http://www.w3.org/2000/svg">
<g filter="url(#filter0_d_195_62)">
<path d="M51 9.4V28.2C51 29.4925 49.9425 30.55 48.65 30.55H41.6V44.65C41.6 45.9425 40.5425 47 39.25 47H15.75C14.4575 47 13.4 45.9425 13.4 44.65V30.55H6.35C5.0575 30.55 4 29.4925 4 28.2V9.4C4 4.2065 8.2065 0 13.4 0H41.6C46.7935 0 51 4.2065 51 9.4Z" fill="#FF8A00"/>
<path d="M41.6 35.25H13.4V39.95H41.6V35.25Z" fill="#C4C4C4"/>
<path d="M36.994 2.35C36.994 2.3735 36.994 2.3735 36.994 2.397C36.994 2.4205 36.994 2.4205 36.994 2.444C36.994 2.538 36.994 2.632 36.9707 2.726C36.7825 7.7785 32.576 11.844 27.5 11.844C22.424 11.844 18.2175 7.7785 18.0295 2.726C18.006 2.632 18.006 2.538 18.006 2.444C18.006 2.4205 18.006 2.4205 18.006 2.397C18.006 2.37373 18.006 2.37373 18.006 2.35C18.006 2.256 18.006 2.162 18.0292 2.068C18.053 1.363 18.1705 0.658 18.3585 0H36.6415C36.8295 0.658 36.947 1.363 36.9705 2.068C36.994 2.162 36.994 2.256 36.994 2.35Z" fill="#C4C4C4"/>
<path d="M13.4 0V30.55H6.35C5.0575 30.55 4 29.4925 4 28.2V9.4C4 4.2065 8.2065 0 13.4 0Z" fill="url(#paint0_linear_195_62)"/>
<path d="M51 9.4V28.2C51 29.4925 49.9425 30.55 48.65 30.55H41.6V0C46.7935 0 51 4.2065 51 9.4Z" fill="url(#paint1_linear_195_62)"/>
</g>
<defs>
<filter id="filter0_d_195_62" x="0" y="0" width="55" height="55" filterUnits="userSpaceOnUse" color-interpolation-filters="sRGB">
<feFlood flood-opacity="0" result="BackgroundImageFix"/>
<feColorMatrix in="SourceAlpha" type="matrix" values="0 0 0 0 0 0 0 0 0 0 0 0 0 0 0 0 0 0 127 0" result="hardAlpha"/>
<feOffset dy="4"/>
<feGaussianBlur stdDeviation="2"/>
<feComposite in2="hardAlpha" operator="out"/>
<feColorMatrix type="matrix" values="0 0 0 0 0 0 0 0 0 0 0 0 0 0 0 0 0 0 0.25 0"/>
<feBlend mode="normal" in2="BackgroundImageFix" result="effect1_dropShadow_195_62"/>
<feBlend mode="normal" in="SourceGraphic" in2="effect1_dropShadow_195_62" result="shape"/>
</filter>
<linearGradient id="paint0_linear_195_62" x1="8.7" y1="0" x2="8.7" y2="30.55" gradientUnits="userSpaceOnUse">
<stop stop-color="#0D0DFF"/>
<stop offset="1" stop-color="#003F86"/>
</linearGradient>
<linearGradient id="paint1_linear_195_62" x1="46.3" y1="0" x2="46.3" y2="30.55" gradientUnits="userSpaceOnUse">
<stop stop-color="#0D0DFF"/>
<stop offset="1" stop-color="#003F86"/>
</linearGradient>
</defs>
</svg>
