<svg width="33" height="29" viewBox="0 0 33 29" fill="none" xmlns="http://www.w3.org/2000/svg">
<path d="M16.5 28.4124C16.0674 28.4135 15.6389 28.329 15.2391 28.1638C14.8392 27.9986 14.476 27.756 14.1703 27.4499L2.9047 16.1843C2.01476 15.2847 1.31273 14.217 0.839531 13.0433C0.366328 11.8697 0.131405 10.6137 0.148448 9.34835C0.157023 8.1888 0.394278 7.04233 0.846624 5.97462C1.29897 4.9069 1.95752 3.93892 2.78455 3.12611C3.61158 2.31331 4.59084 1.67165 5.66624 1.23789C6.74164 0.804138 7.89205 0.586806 9.05157 0.598348C10.2319 0.586459 11.4025 0.811712 12.4941 1.26075C13.5857 1.70978 14.576 2.37346 15.4063 3.21241L16.5 4.30616L17.3969 3.40929C18.9455 1.81959 21.0178 0.845002 23.2299 0.666023C25.442 0.487043 27.6441 1.1158 29.4281 2.43585C30.4437 3.21793 31.281 4.20741 31.8843 5.3384C32.4875 6.46938 32.8429 7.71591 32.9267 8.99498C33.0105 10.274 32.8209 11.5563 32.3704 12.7563C31.9199 13.9564 31.2189 15.0467 30.3141 15.9546L18.8297 27.4499C18.524 27.756 18.1608 27.9986 17.761 28.1638C17.3611 28.329 16.9326 28.4135 16.5 28.4124ZM9.00782 2.77491C7.26933 2.77314 5.59835 3.44781 4.34845 4.65616C3.71123 5.26926 3.20448 6.00481 2.85865 6.81865C2.51281 7.63249 2.33502 8.50783 2.33595 9.3921C2.32636 10.3648 2.50995 11.3297 2.87606 12.2309C3.24218 13.1321 3.78354 13.9517 4.46876 14.6421L15.7344 25.9077C15.8361 26.0102 15.957 26.0916 16.0903 26.1471C16.2236 26.2027 16.3666 26.2313 16.511 26.2313C16.6553 26.2313 16.7983 26.2027 16.9316 26.1471C17.0649 26.0916 17.1858 26.0102 17.2875 25.9077L28.7828 14.4015C29.4576 13.7125 29.9789 12.8885 30.3126 11.9836C30.6462 11.0788 30.7847 10.1136 30.7188 9.15147C30.6604 8.17947 30.3926 7.23157 29.9339 6.37264C29.4752 5.51371 28.8363 4.76403 28.0609 4.17491C26.7005 3.17182 25.0217 2.69753 23.3375 2.8404C21.6532 2.98327 20.0783 3.73356 18.9063 4.95147L17.2766 6.62491C17.1749 6.72743 17.0539 6.80879 16.9206 6.86432C16.7874 6.91985 16.6444 6.94844 16.5 6.94844C16.3556 6.94844 16.2127 6.91985 16.0794 6.86432C15.9461 6.80879 15.8251 6.72743 15.7235 6.62491L13.8641 4.76553C12.5834 3.49599 10.8549 2.781 9.05157 2.77491H9.00782Z" fill="#929EAF"/>
</svg>
