<svg width="520" height="507" viewBox="0 0 520 507" fill="none" xmlns="http://www.w3.org/2000/svg">
<path d="M475.549 159.494L276.316 8.80669C260.982 -2.80698 239.018 -2.80698 223.684 8.80669L24.4509 159.494C9.01367 171.205 0 188.722 0 207.304V457.965C0 473.934 13.8831 487 31.0816 487H468.918C486.013 487 500 474.031 500 457.965V207.304C500 188.722 490.986 171.108 475.549 159.494Z" fill="#003F86"/>
<path d="M26.2122 469.579V218.918C26.2122 200.336 35.2259 182.819 50.6631 171.108L249.793 20.5175C258.703 13.7428 269.789 10.9362 280.667 12.0008L276.316 8.71025C260.982 -2.90342 239.018 -2.90342 223.684 8.71025L24.4509 159.494C9.01367 171.205 0 188.722 0 207.304V457.966C0 473.935 13.8831 487 31.0816 487H32.3249C28.4915 482.064 26.2122 476.064 26.2122 469.579Z" fill="#5E7296"/>
<g filter="url(#filter0_d_220_99)">
<path d="M494.405 182.528L275.487 348.023C260.568 359.249 239.329 359.249 224.513 348.023L5.5947 182.528C1.9685 190.271 0 198.69 0 207.304V457.966C0 473.934 13.8831 487 31.0816 487H468.918C486.013 487 500 474.031 500 457.966V207.304C500 198.594 498.032 190.174 494.405 182.528Z" fill="#589FFF"/>
</g>
<path d="M26.2122 219.014C26.2122 212.627 27.2482 206.336 29.3204 200.432L5.5947 182.528C5.5947 182.625 5.49109 182.625 5.49109 182.722C1.9685 190.367 0 198.69 0 207.304V457.966C0 473.935 13.8831 487 31.0816 487H32.3249C28.4915 482.161 26.2122 476.257 26.2122 469.773V219.014Z" fill="#9BC5FF"/>
<path d="M224.513 348.023C239.432 359.25 260.671 359.25 275.487 348.023L446.954 218.337V75.4892C446.954 56.9073 430.791 41.8096 410.899 41.8096H89.1006C69.2083 41.8096 53.0459 56.9073 53.0459 75.4892V218.337L224.513 348.023Z" fill="#DEF6FC"/>
<path d="M78.3256 75.489C78.3256 56.9071 94.4881 41.8093 114.38 41.8093H89.1006C69.2083 41.8093 53.0459 56.9071 53.0459 75.489V218.337L78.3256 237.5V75.489Z" fill="white"/>
<path d="M264.609 95.7158C269.478 102.781 279.321 105.297 287.298 101.426C298.591 95.9094 312.06 103.265 312.682 115.072C313.096 123.492 320.245 130.17 329.259 130.557C341.898 131.041 349.773 143.719 343.867 154.268C339.723 161.72 342.313 170.914 349.98 175.463C360.651 181.851 360.651 196.464 349.98 202.852C342.417 207.401 339.723 216.595 343.867 224.047C349.773 234.596 341.898 247.177 329.259 247.758C320.245 248.145 313.096 254.823 312.682 263.243C312.164 275.05 298.591 282.406 287.298 276.889C279.321 273.018 269.478 275.437 264.609 282.599C257.771 292.568 242.126 292.568 235.288 282.599C230.419 275.534 220.576 273.018 212.599 276.889C201.306 282.406 187.837 275.05 187.216 263.243C186.801 254.823 179.652 248.145 170.639 247.758C157.999 247.274 150.125 234.596 156.03 224.047C160.175 216.595 157.584 207.401 149.918 202.852C139.246 196.464 139.246 181.851 149.918 175.463C157.481 170.914 160.175 161.72 156.03 154.268C150.125 143.719 157.999 131.137 170.639 130.557C179.652 130.17 186.801 123.492 187.216 115.072C187.734 103.265 201.306 95.9094 212.599 101.426C220.576 105.297 230.419 102.878 235.288 95.7158C242.23 85.7474 257.771 85.7474 264.609 95.7158Z" fill="#FF8A00"/>
<path d="M260.464 91.4573C252.694 86.0376 240.986 87.3925 235.392 95.7157C234.666 96.7802 233.838 97.6513 233.009 98.5223C241.608 95.0382 250.829 92.6187 260.464 91.4573Z" fill="#FFD600"/>
<path d="M168.877 189.109C168.877 152.139 190.738 119.911 222.959 103.071C219.54 103.458 215.914 102.974 212.702 101.426C201.409 95.9095 187.941 103.265 187.319 115.072C186.905 123.492 179.756 130.17 170.742 130.557C158.102 131.041 150.228 143.719 156.134 154.268C160.278 161.72 157.688 170.914 150.021 175.463C139.35 181.851 139.35 196.465 150.021 202.852C157.584 207.401 160.278 216.595 156.134 224.047C150.228 234.596 158.102 247.178 170.742 247.758C179.756 248.145 186.905 254.823 187.319 263.243C187.837 275.05 201.409 282.406 212.702 276.889C216.018 275.341 219.54 274.76 222.959 275.244C190.738 258.307 168.877 226.079 168.877 189.109Z" fill="#FFD600"/>
<path d="M233.009 279.696C233.941 280.567 234.666 281.438 235.392 282.502C241.09 290.825 252.797 292.18 260.464 286.761C250.829 285.502 241.608 283.083 233.009 279.696Z" fill="#FF908A"/>
<path d="M199.959 174.882V155.236C199.959 144.009 207.833 139.751 217.986 139.751C228.036 139.751 236.014 143.913 236.014 155.236V174.882C236.014 186.109 228.036 190.367 217.986 190.367C207.833 190.27 199.959 186.109 199.959 174.882ZM227.725 155.236C227.725 149.526 224.099 146.719 218.09 146.719C212.081 146.719 208.455 149.429 208.455 155.236V174.882C208.455 180.592 212.081 183.399 218.09 183.399C224.099 183.399 227.725 180.689 227.725 174.882V155.236ZM279.528 138.977C279.528 139.654 279.424 140.138 279.114 140.816L226.689 237.209C225.964 238.661 224.41 239.338 222.752 239.338C220.266 239.338 218.297 237.499 218.297 235.37C218.297 234.886 218.401 234.209 218.712 233.628L271.24 136.557C271.965 135.202 273.312 134.622 274.762 134.622C277.041 134.622 279.528 136.46 279.528 138.977ZM260.879 220.369V200.723C260.879 189.496 268.753 185.238 278.906 185.238C288.956 185.238 296.934 189.399 296.934 200.723V220.369C296.934 231.596 288.956 235.854 278.906 235.854C268.753 235.854 260.879 231.596 260.879 220.369ZM288.645 200.723C288.645 195.013 285.019 192.206 279.01 192.206C273.001 192.206 269.375 194.916 269.375 200.723V220.369C269.375 226.079 273.001 228.886 279.01 228.886C285.019 228.886 288.645 226.176 288.645 220.369V200.723Z" fill="white"/>
<defs>
<filter id="filter0_d_220_99" x="0" y="182.528" width="520" height="324.472" filterUnits="userSpaceOnUse" color-interpolation-filters="sRGB">
<feFlood flood-opacity="0" result="BackgroundImageFix"/>
<feColorMatrix in="SourceAlpha" type="matrix" values="0 0 0 0 0 0 0 0 0 0 0 0 0 0 0 0 0 0 127 0" result="hardAlpha"/>
<feOffset dx="10" dy="10"/>
<feGaussianBlur stdDeviation="5"/>
<feComposite in2="hardAlpha" operator="out"/>
<feColorMatrix type="matrix" values="0 0 0 0 0 0 0 0 0 0 0 0 0 0 0 0 0 0 0.25 0"/>
<feBlend mode="normal" in2="BackgroundImageFix" result="effect1_dropShadow_220_99"/>
<feBlend mode="normal" in="SourceGraphic" in2="effect1_dropShadow_220_99" result="shape"/>
</filter>
</defs>
</svg>
