<svg width="55" height="55" viewBox="0 0 55 55" fill="none" xmlns="http://www.w3.org/2000/svg">
<g filter="url(#filter0_d_195_164)">
<path d="M42.8542 17.5467H33.5292L34.7725 15.6667C35.8604 13.9433 36.4821 11.9067 36.4821 9.87V5.95333C36.4821 2.66333 33.84 0 30.5763 0H28.4004C25.1367 0 22.4946 2.66333 22.4946 5.95333V8.93C22.4946 9.55667 22.3392 10.1833 21.8729 10.6533L16.7442 17.7033H5.55417C4.77708 17.7033 4 18.33 4 19.27V29.7667V45.4333C4 46.2167 4.77708 47 5.55417 47H17.5212H42.8542C47.2058 47 50.625 43.5533 50.625 39.1667V29.7667V25.38C50.625 20.9933 47.2058 17.5467 42.8542 17.5467Z" fill="#FF8A00"/>
</g>
<path d="M15.9671 45.4333V29.7666V19.1133C15.9671 18.8 16.1225 18.4866 16.2779 18.1733L16.7442 17.5466H5.55417C4.77708 17.5466 4 18.1733 4 19.1133V29.7666V45.4333C4 46.2166 4.77708 47 5.55417 47H17.5212C16.7442 47 15.9671 46.2166 15.9671 45.4333Z" fill="url(#paint0_linear_195_164)"/>
<defs>
<filter id="filter0_d_195_164" x="0" y="0" width="54.625" height="55" filterUnits="userSpaceOnUse" color-interpolation-filters="sRGB">
<feFlood flood-opacity="0" result="BackgroundImageFix"/>
<feColorMatrix in="SourceAlpha" type="matrix" values="0 0 0 0 0 0 0 0 0 0 0 0 0 0 0 0 0 0 127 0" result="hardAlpha"/>
<feOffset dy="4"/>
<feGaussianBlur stdDeviation="2"/>
<feComposite in2="hardAlpha" operator="out"/>
<feColorMatrix type="matrix" values="0 0 0 0 0 0 0 0 0 0 0 0 0 0 0 0 0 0 0.25 0"/>
<feBlend mode="normal" in2="BackgroundImageFix" result="effect1_dropShadow_195_164"/>
<feBlend mode="normal" in="SourceGraphic" in2="effect1_dropShadow_195_164" result="shape"/>
</filter>
<linearGradient id="paint0_linear_195_164" x1="10.7606" y1="17.5466" x2="10.7606" y2="47" gradientUnits="userSpaceOnUse">
<stop stop-color="#0D0DFF"/>
<stop offset="1" stop-color="#003F86"/>
</linearGradient>
</defs>
</svg>
