<svg width="19" height="23" viewBox="0 0 19 23" fill="none" xmlns="http://www.w3.org/2000/svg">
<path d="M9.5 22.1667C9.16936 22.164 8.84297 22.0969 8.54172 21.9696C8.24048 21.8424 7.97101 21.6578 7.75059 21.4278C4.8613 18.4722 0.000955843 12.8493 0.000955843 9.13267C-0.0350078 6.7463 0.945151 4.44417 2.72618 2.73183C4.50721 1.0195 6.94349 0.0369628 9.5 0C12.0565 0.0369628 14.4928 1.0195 16.2738 2.73183C18.0548 4.44417 19.035 6.7463 18.999 9.13267C18.999 12.8271 14.1387 18.4353 11.2494 21.4352C11.0283 21.6639 10.7585 21.8471 10.4573 21.973C10.1561 22.0989 9.83005 22.1649 9.5 22.1667ZM9.5 1.47778C7.36404 1.51663 5.33164 2.34406 3.84794 3.77883C2.36425 5.21361 1.55021 7.13878 1.58413 9.13267C1.58413 11.4528 4.33094 15.6792 8.93006 20.4451C9.0039 20.5166 9.09243 20.5734 9.19036 20.6123C9.28828 20.6511 9.39359 20.6712 9.5 20.6712C9.6064 20.6712 9.71172 20.6511 9.80964 20.6123C9.90757 20.5734 9.9961 20.5166 10.0699 20.4451C14.6691 15.6792 17.4159 11.4528 17.4159 9.13267C17.4498 7.13878 16.6357 5.21361 15.1521 3.77883C13.6684 2.34406 11.636 1.51663 9.5 1.47778Z" fill="white"/>
<path d="M9.49952 13.2998C8.56016 13.2998 7.64189 13.0398 6.86083 12.5526C6.07978 12.0655 5.47102 11.3731 5.11154 10.563C4.75206 9.75292 4.658 8.86152 4.84126 8.00154C5.02452 7.14156 5.47687 6.35161 6.1411 5.7316C6.80534 5.11159 7.65162 4.68935 8.57294 4.51829C9.49426 4.34723 10.4492 4.43503 11.3171 4.77057C12.1849 5.10612 12.9267 5.67435 13.4486 6.40341C13.9705 7.13247 14.249 7.98961 14.249 8.86644C14.249 10.0422 13.7487 11.1699 12.8579 12.0013C11.9672 12.8327 10.7592 13.2998 9.49952 13.2998ZM9.49952 5.91089C8.87328 5.91089 8.2611 6.08423 7.7404 6.40899C7.21969 6.73375 6.81385 7.19534 6.5742 7.7354C6.33455 8.27546 6.27184 8.86972 6.39402 9.44304C6.51619 10.0164 6.81776 10.543 7.26058 10.9563C7.7034 11.3697 8.26759 11.6512 8.8818 11.7652C9.49601 11.8792 10.1327 11.8207 10.7112 11.597C11.2898 11.3733 11.7843 10.9945 12.1322 10.5085C12.4802 10.0224 12.6659 9.45099 12.6659 8.86644C12.6659 8.08258 12.3323 7.33082 11.7385 6.77655C11.1447 6.22227 10.3393 5.91089 9.49952 5.91089Z" fill="white"/>
</svg>
