<svg width="19" height="17" viewBox="0 0 19 17" fill="none" xmlns="http://www.w3.org/2000/svg">
<path d="M18.8018 2.20557L18.0482 1.36768L11.0669 9.12914C10.1943 10.0993 8.72666 10.0993 7.85401 9.12914L0.872795 1.41178L0.119141 2.24966L5.31538 8.02666L0.119141 13.8037L0.872795 14.6415L6.06904 8.86454L7.10035 10.0111C7.73501 10.7167 8.56799 11.1136 9.44064 11.1136C10.3133 11.1136 11.1463 10.7167 11.7809 10.0111L12.8123 8.86454L18.0085 14.6415L18.7621 13.8037L13.5659 8.02666L18.8018 2.20557Z" fill="white"/>
<path d="M17.334 16.1403H1.66597C0.753655 16.1403 0 15.3024 0 14.2881V1.85217C0 0.837884 0.753655 0 1.66597 0H17.334C18.2463 0 19 0.837884 19 1.85217V14.2881C19 15.3024 18.2463 16.1403 17.334 16.1403ZM1.6263 1.19068C1.30898 1.19068 1.07098 1.45527 1.07098 1.80806V14.2441C1.07098 14.5968 1.30898 14.8614 1.6263 14.8614H17.2944C17.6117 14.8614 17.8497 14.5968 17.8497 14.2441V1.80806C17.8497 1.45527 17.6117 1.19068 17.2944 1.19068H1.6263Z" fill="white"/>
</svg>
