<svg width="19" height="19" viewBox="0 0 19 19" fill="none" xmlns="http://www.w3.org/2000/svg">
<path d="M13.9243 19.0001C13.185 18.9946 12.449 18.9018 11.7314 18.7236C9.25365 18.1258 6.70212 16.6093 4.54805 14.4533C2.39397 12.2973 0.875532 9.74534 0.277703 7.2699C-0.35179 4.66591 0.0971731 2.43811 1.54047 0.994817L1.95257 0.582716C2.32647 0.209569 2.83313 0 3.36137 0C3.88961 0 4.39627 0.209569 4.77016 0.582716L7.13833 2.9504C7.5117 3.32418 7.72143 3.83088 7.72143 4.3592C7.72143 4.88752 7.5117 5.39423 7.13833 5.768L5.73945 7.1664C6.41006 8.34315 7.32216 9.52085 8.40015 10.5988C9.47813 11.6768 10.6568 12.5894 11.8331 13.26L13.2315 11.8611C13.4164 11.6761 13.6361 11.5293 13.8778 11.4291C14.1195 11.329 14.3786 11.2774 14.6403 11.2774C14.9019 11.2774 15.161 11.329 15.4027 11.4291C15.6444 11.5293 15.8641 11.6761 16.0491 11.8611L18.4167 14.2288C18.7902 14.6025 19 15.1091 19 15.6374C19 16.1657 18.7902 16.6723 18.4167 17.0459L18.0042 17.458C16.9867 18.4774 15.5784 19.0001 13.9243 19.0001ZM3.36137 1.41684C3.28591 1.41647 3.21114 1.43116 3.14143 1.46004C3.07172 1.48893 3.00848 1.53144 2.95541 1.58508L2.54284 1.99719C1.46202 3.078 1.14633 4.83274 1.65389 6.9353C2.19123 9.16263 3.57451 11.4769 5.54852 13.4505C7.52254 15.424 9.83635 16.8059 12.0642 17.3451C14.1672 17.8527 15.921 17.537 17.0018 16.4561L17.4139 16.044C17.5216 15.9363 17.5821 15.7902 17.5821 15.6379C17.5821 15.4855 17.5216 15.3394 17.4139 15.2317L15.0467 12.864C14.9389 12.7563 14.7928 12.6958 14.6405 12.6958C14.4882 12.6958 14.3421 12.7563 14.2343 12.864L12.4616 14.6367C12.3552 14.7431 12.2178 14.8129 12.0691 14.836C11.9204 14.8591 11.7682 14.8343 11.6346 14.7652C10.1813 14.0138 8.71631 12.9197 7.39778 11.6012C6.07925 10.2827 4.98756 8.81858 4.23425 7.36536C4.16507 7.23176 4.14019 7.07961 4.16321 6.93093C4.18624 6.78225 4.25597 6.64475 4.36232 6.53832L6.13548 4.76563C6.24316 4.65787 6.30364 4.51177 6.30364 4.35944C6.30364 4.2071 6.24316 4.061 6.13548 3.95324L3.7678 1.58508C3.71456 1.53154 3.65122 1.48909 3.58145 1.46021C3.51168 1.43133 3.43688 1.41659 3.36137 1.41684Z" fill="white"/>
<path d="M14.6815 10.4783C14.4935 10.4783 14.3132 10.4036 14.1802 10.2706C14.0473 10.1377 13.9726 9.95738 13.9726 9.76937C13.9712 8.52576 13.4766 7.33347 12.5973 6.45405C11.718 5.57464 10.5257 5.07992 9.28213 5.07842C9.09412 5.07842 8.91381 5.00373 8.78087 4.87079C8.64793 4.73785 8.57324 4.55754 8.57324 4.36953C8.57324 4.18152 8.64793 4.00122 8.78087 3.86827C8.91381 3.73533 9.09412 3.66064 9.28213 3.66064C12.6503 3.66064 15.3904 6.40168 15.3904 9.76937C15.3904 9.95738 15.3157 10.1377 15.1828 10.2706C15.0498 10.4036 14.8695 10.4783 14.6815 10.4783Z" fill="white"/>
<path d="M17.6777 10.4779C17.4897 10.4779 17.3094 10.4032 17.1765 10.2703C17.0435 10.1373 16.9688 9.95703 16.9688 9.76902C16.9688 5.53034 13.5189 2.08184 9.28213 2.08184C9.09412 2.08184 8.91381 2.00715 8.78087 1.87421C8.64793 1.74127 8.57324 1.56096 8.57324 1.37295C8.57324 1.18494 8.64793 1.00463 8.78087 0.871691C8.91381 0.738749 9.09412 0.664063 9.28213 0.664062C14.3025 0.664062 18.3866 4.74867 18.3866 9.76902C18.3866 9.95703 18.3119 10.1373 18.179 10.2703C18.0461 10.4032 17.8657 10.4779 17.6777 10.4779Z" fill="white"/>
</svg>
