<svg width="30" height="30" viewBox="0 0 30 30" fill="none" xmlns="http://www.w3.org/2000/svg">
<path d="M15.3325 7.18799C11.2045 7.18799 7.84729 10.545 7.8457 14.6712C7.84509 16.0853 8.2408 17.4624 8.98987 18.6539L9.16786 18.9371L8.41185 21.6986L11.2443 20.9557L11.5175 21.1178C12.6665 21.7996 13.9836 22.1605 15.3264 22.161H15.3295C19.4543 22.161 22.8114 18.8037 22.8131 14.6771C22.8138 12.6775 22.0361 10.7972 20.6233 9.38262C19.2104 7.96814 17.3313 7.1886 15.3325 7.18799ZM19.7344 17.8888C19.5469 18.4143 18.6481 18.8939 18.2158 18.9585C17.8281 19.0165 17.3377 19.0406 16.7988 18.8694C16.4721 18.7657 16.053 18.6273 15.5162 18.3955C13.2594 17.4209 11.7854 15.1486 11.673 14.9984C11.5605 14.8483 10.7543 13.7784 10.7543 12.671C10.7543 11.5637 11.3356 11.0194 11.5418 10.7941C11.7479 10.569 11.9917 10.5126 12.1417 10.5126C12.2916 10.5126 12.4418 10.514 12.5728 10.5205C12.7109 10.5275 12.8964 10.4681 13.0791 10.9067C13.2665 11.3573 13.7164 12.4647 13.7727 12.5773C13.829 12.6899 13.8665 12.8213 13.7915 12.9714C13.7165 13.1215 13.679 13.2154 13.5665 13.3467C13.4541 13.4781 13.3302 13.64 13.2291 13.7409C13.1164 13.8531 12.9992 13.9748 13.1304 14.2C13.2617 14.4253 13.7132 15.162 14.382 15.7586C15.2413 16.525 15.9662 16.7626 16.1912 16.8752C16.4161 16.9879 16.5474 16.969 16.6786 16.819C16.8099 16.6688 17.241 16.162 17.391 15.9368C17.541 15.7116 17.691 15.7491 17.8972 15.8242C18.1034 15.8994 19.2095 16.4435 19.4345 16.5561C19.6594 16.6687 19.8094 16.7251 19.8656 16.819C19.9218 16.9127 19.9218 17.3632 19.7344 17.8888Z" fill="#FF8A00"/>
<path d="M15.0003 0C6.71612 0 0 6.71503 0 14.9994C0 23.2837 6.71612 30 15.0003 30C23.2839 30 30 23.2837 30 14.9994C30 6.71503 23.2839 0 15.0003 0ZM15.3295 23.6818C15.3292 23.6818 15.3297 23.6818 15.3295 23.6818H15.3258C13.8189 23.6812 12.3381 23.3031 11.023 22.5858L6.24993 23.8379L7.52732 19.1721C6.73939 17.8066 6.3248 16.2577 6.32547 14.6707C6.32742 9.70626 10.3666 5.66728 15.3294 5.66728C17.738 5.66825 19.9987 6.60593 21.6986 8.30787C23.3986 10.0097 24.3343 12.2719 24.3334 14.6779C24.3313 19.6424 20.2918 23.6818 15.3295 23.6818Z" fill="#FF8A00"/>
</svg>
