<svg width="94" height="115" viewBox="0 0 94 115" fill="none" xmlns="http://www.w3.org/2000/svg">
<path d="M92.9743 28.175L91.6925 26.8333L68.3635 2.415L67.338 1.34167C66.5262 0.498333 65.3298 0 64.0907 0H59.818H4.27272C1.92272 0 0 1.725 0 3.83333V111.167C0 113.275 1.92272 115 4.27272 115H89.7271C92.077 115 93.9998 113.275 93.9998 111.167V34.5V30.6667C93.9998 29.7467 93.6579 28.865 92.9743 28.175Z" fill="url(#paint0_linear_368_1079)"/>
<path d="M94.0001 30.6667V34.5H64.0911C61.7411 34.5 59.8184 32.775 59.8184 30.6667V0H64.0911C65.3302 0 66.5265 0.498334 67.3383 1.34167L68.3638 2.415L91.6928 26.8333L92.9746 28.175C93.6583 28.865 94.0001 29.7467 94.0001 30.6667Z" fill="#FE9803"/>
<path d="M41.1761 84.3334C41.147 84.3334 41.1137 84.3334 41.0842 84.3334C39.749 84.3074 38.5056 83.7232 37.7211 82.7556L22.1825 63.589C20.7931 61.8762 21.2143 59.4785 23.1255 58.2338C25.0367 56.9834 27.7072 57.3652 29.0924 59.0779L41.3265 74.1697L65.0225 47.4468C66.4872 45.7923 69.1786 45.5113 71.0227 46.8327C72.8711 48.1506 73.1757 50.5629 71.7072 52.2197L44.5186 82.8863C43.7089 83.8017 42.4779 84.3334 41.1761 84.3334Z" fill="#0D0DFF"/>
<defs>
<linearGradient id="paint0_linear_368_1079" x1="0" y1="0" x2="93.2336" y2="168.657" gradientUnits="userSpaceOnUse">
<stop stop-color="#FFD600"/>
<stop offset="1" stop-color="#FF8A00"/>
</linearGradient>
</defs>
</svg>
