<svg width="44" height="59" viewBox="0 0 44 59" fill="none" xmlns="http://www.w3.org/2000/svg">
<path d="M35.4 31.4667H7.86669C6.7807 31.4667 5.90002 30.586 5.90002 29.5V15.7333C5.90002 7.05817 12.9582 0 21.6334 0C30.3085 0 37.3667 7.05817 37.3667 15.7333V29.5C37.3667 30.586 36.487 31.4667 35.4 31.4667ZM9.83336 27.5333H33.4334V15.7333C33.4334 9.22642 28.1403 3.93333 21.6334 3.93333C15.1264 3.93333 9.83336 9.22642 9.83336 15.7333V27.5333Z" fill="#FF8A00"/>
<path d="M43.2667 29.5V41.3C43.2667 51.0547 35.3213 59 25.5667 59H17.7C7.94533 59 0 51.0547 0 41.3V29.5C0 28.4183 0.885 27.5333 1.96667 27.5333H41.3C42.3817 27.5333 43.2667 28.4183 43.2667 29.5Z" fill="url(#paint0_linear_363_421)"/>
<path d="M27.5333 39.3333C27.5333 41.89 25.8813 44.0533 23.5999 44.8793V49.1667C23.5999 50.2483 22.7149 51.1333 21.6333 51.1333C20.5516 51.1333 19.6666 50.2483 19.6666 49.1667V44.8793C17.3853 44.0533 15.7333 41.89 15.7333 39.3333C15.7333 36.0883 18.3883 33.4333 21.6333 33.4333C24.8783 33.4333 27.5333 36.0883 27.5333 39.3333Z" fill="white"/>
<defs>
<linearGradient id="paint0_linear_363_421" x1="21.6333" y1="27.5333" x2="21.6333" y2="59" gradientUnits="userSpaceOnUse">
<stop stop-color="#0D0DFF"/>
<stop offset="1" stop-color="#2222B1"/>
</linearGradient>
</defs>
</svg>
