<svg width="59" height="59" viewBox="0 0 59 59" fill="none" xmlns="http://www.w3.org/2000/svg">
<path d="M40.5133 31.4667C44.6433 28.32 47.2 23.2067 47.2 17.7C47.2 7.86667 39.3333 0 29.5 0C19.6667 0 11.8 7.86667 11.8 17.7C11.8 23.2067 14.3567 28.32 18.4867 31.4667C8.26 32.0567 0 40.71 0 51.1333V57.0333C0 58.0167 0.983333 59 1.96667 59H29.5H57.0333C58.0167 59 59 58.0167 59 57.0333V51.1333C59 40.71 50.74 32.0567 40.5133 31.4667Z" fill="url(#paint0_linear_361_975)"/>
<path d="M40.5133 31.4667C37.5633 33.8267 33.63 35.4 29.5 35.4C25.37 35.4 21.4367 34.0233 18.4867 31.4667C8.26 32.0567 0 40.71 0 51.1333V57.0333C0 58.0167 0.983333 59 1.96667 59H29.5H57.0333C58.0167 59 59 58.0167 59 57.0333V51.1333C59 40.71 50.74 32.0567 40.5133 31.4667Z" fill="url(#paint1_linear_361_975)"/>
<defs>
<linearGradient id="paint0_linear_361_975" x1="29.5" y1="0" x2="29.5" y2="59" gradientUnits="userSpaceOnUse">
<stop stop-color="#FFD600"/>
<stop offset="1" stop-color="#FF8A00"/>
</linearGradient>
<linearGradient id="paint1_linear_361_975" x1="29.5" y1="31.4667" x2="29.5" y2="59" gradientUnits="userSpaceOnUse">
<stop stop-color="#0D0DFF"/>
<stop offset="1" stop-color="#2222B1"/>
</linearGradient>
</defs>
</svg>
