<svg width="17" height="20" viewBox="0 0 17 20" fill="none" xmlns="http://www.w3.org/2000/svg">
<path d="M4.39489 3.83333H4.89489V3.33333V1.82292C4.89489 1.04836 5.42409 0.5 6.05625 0.5H10.9389C11.5768 0.5 12.1051 1.04937 12.1051 1.82292V3.33333V3.33854V3.83854H12.6051H16.5V4.5083L16.4962 4.50876L16.5 4.54052V4.54139C16.4961 4.50878 16.496 4.50878 16.496 4.50879L16.4957 4.50882L16.4952 4.50888L16.4941 4.50902L16.4916 4.50934L16.4853 4.51016L16.4681 4.51267C16.4547 4.51473 16.4372 4.51767 16.4166 4.52171C16.376 4.52968 16.3202 4.54249 16.2572 4.56246C16.1453 4.59797 15.9481 4.6751 15.793 4.84232C15.6421 5.00503 15.5691 5.22002 15.536 5.32982C15.5161 5.39595 15.502 5.45508 15.4929 5.49775C15.4882 5.51933 15.4847 5.53734 15.4822 5.55069L15.4793 5.56726L15.4783 5.57278L15.478 5.57481L15.4778 5.57564L15.4778 5.576L15.4778 5.57618C15.4777 5.57626 15.4777 5.57634 15.9713 5.65625L15.4777 5.57634L15.4742 5.598L15.4726 5.61988L14.555 18.2032L14.5549 18.2032L14.5543 18.216L14.5542 18.2168C14.5356 18.6106 14.5228 18.8805 14.4915 19.085C14.4603 19.2892 14.4206 19.3477 14.4055 19.365L14.4055 19.3651C14.3982 19.3734 14.3617 19.4152 14.1848 19.4493C14.0003 19.4849 13.7297 19.5 13.3151 19.5H3.68494C3.27058 19.5 3.0003 19.4846 2.81622 19.4487C2.6396 19.4143 2.60302 19.3722 2.59532 19.3634C2.57957 19.3453 2.53974 19.2855 2.5085 19.0808C2.47721 18.8759 2.46444 18.6059 2.44584 18.2127L2.44575 18.2107L2.44591 18.2107L2.44498 18.198L1.52737 5.60948L1.52573 5.58695L1.52206 5.56467L1.02869 5.64583C1.52206 5.56467 1.52205 5.56458 1.52203 5.5645L1.52201 5.56433L1.52194 5.56396L1.52181 5.56312L1.52146 5.56109L1.52051 5.55558L1.51751 5.53912C1.51501 5.52587 1.51147 5.50802 1.50682 5.48664C1.4976 5.44437 1.48347 5.38581 1.46347 5.32027C1.43008 5.21077 1.35681 4.9987 1.20698 4.83711C1.05192 4.66989 0.854749 4.59277 0.742789 4.55725C0.679813 4.53728 0.62404 4.52448 0.583387 4.5165C0.562786 4.51247 0.545339 4.50952 0.53192 4.50746L0.514714 4.50495L0.508442 4.50413L0.505915 4.50381L0.504807 4.50367L0.504293 4.50361L0.504045 4.50358C0.503996 4.50357 0.503948 4.50357 0.5 4.53617V4.5353L0.503804 4.50355L0.5 4.5031V3.83333H4.39489ZM11.5909 3.83333H12.0909V3.33333V1.82292C12.0909 1.41933 11.9135 1.08316 11.6357 0.858177C11.3678 0.64119 11.0266 0.541667 10.6926 0.541667H6.26392C5.9304 0.541667 5.5929 0.639911 5.33059 0.866213C5.05954 1.10006 4.90909 1.43705 4.90909 1.82292V3.33333V3.83333H5.40909H11.5909ZM4.4992 16.6915L4.52283 17.1667H4.99858H5.98864H6.51463L6.48799 16.6413L5.98089 6.64134L5.95682 6.16667H5.48153H4.50114H3.97565L4.00175 6.69151L4.4992 16.6915ZM9.03608 17.1667H9.53608V16.6667V6.66667V6.16667H9.03608H7.97358H7.47358V6.66667V16.6667V17.1667H7.97358H9.03608ZM12.0111 17.1667H12.4866L12.5105 16.6917L13.0127 6.69175L13.0391 6.16667H12.5134H11.533H11.0577L11.0336 6.64134L10.5265 16.6413L10.4999 17.1667H11.0259H12.0111Z" stroke="#929EAF"/>
</svg>
