<svg width="125" height="125" viewBox="0 0 125 125" fill="none" xmlns="http://www.w3.org/2000/svg">
<path d="M104.098 41.6667H62.4618H20.8257C18.5357 41.6667 16.6621 43.5417 16.6621 45.8333V112.5C16.6621 114.5 18.0777 116.208 19.993 116.583L61.5874 124.917H61.6291C61.9205 124.958 62.1703 125 62.4618 125C62.7532 125 63.003 124.958 63.2945 124.917H63.3361L104.931 116.583C106.846 116.208 108.261 114.5 108.261 112.5V45.8333C108.261 43.5417 106.388 41.6667 104.098 41.6667Z" fill="#FF8A00"/>
<path d="M39.0432 19.92L59.8612 36.5867C60.0494 36.7375 60.2705 36.8121 60.4762 36.9258C60.6431 37.0187 60.7909 37.1292 60.9708 37.1987C61.4434 37.3812 61.9343 37.4908 62.4339 37.4946C62.4443 37.4946 62.4531 37.5004 62.4635 37.5004C62.4739 37.5004 62.4826 37.4946 62.493 37.4946C62.9922 37.4908 63.484 37.3812 63.9561 37.1987C64.136 37.1292 64.2834 37.0192 64.4495 36.9267C64.6556 36.8133 64.8771 36.7379 65.0653 36.5871L85.8833 19.9204C87.6766 18.4842 87.9693 15.8617 86.5341 14.065C85.0947 12.2704 82.4804 11.9754 80.6788 13.4137L66.6267 24.6637V4.16667C66.6267 1.86583 64.7643 0 62.4631 0C60.1618 0 58.2994 1.86583 58.2994 4.16667V24.6637L44.2473 13.4137C43.4791 12.7992 42.5602 12.5 41.6496 12.5C40.4259 12.5 39.2181 13.035 38.3928 14.0646C36.9572 15.8608 37.2499 18.4833 39.0432 19.92Z" fill="#FF8A00"/>
<path d="M62.4618 41.6667V125C62.1703 125 61.9205 124.958 61.6291 124.917H61.5874L19.993 116.583C18.0777 116.208 16.6621 114.5 16.6621 112.5V45.8333C16.6621 43.5417 18.5357 41.6667 20.8257 41.6667H62.4618Z" fill="#C87616"/>
<path d="M66.1277 43.875C65.4199 42.5 64.0043 41.6667 62.4638 41.6667C60.9232 41.6667 59.5076 42.5 58.7998 43.875C58.0503 45.2083 58.1336 46.875 59.008 48.125L62.4638 53.3333L65.9195 48.125C66.7939 46.875 66.8772 45.2083 66.1277 43.875Z" fill="#FFD600"/>
<path d="M59.0084 48.125L62.4642 53.3333L49.2656 73.125C48.5161 74.2917 47.1838 75 45.8098 75H4.17371C2.63318 75 1.21755 74.1667 0.509738 72.7917C-0.239712 71.4583 -0.156439 69.7917 0.717918 68.5417L17.3723 43.5417C18.1218 42.375 19.4541 41.6667 20.8281 41.6667H62.4642C60.9237 41.6667 59.508 42.5 58.8002 43.875C58.0508 45.2083 58.134 46.875 59.0084 48.125Z" fill="#FFD600"/>
<path d="M66.1287 43.875C65.4209 42.5 64.0053 41.6667 62.4647 41.6667C60.9242 41.6667 59.5086 42.5 58.8008 43.875C58.0513 45.2083 58.1346 46.875 59.0089 48.125L62.4647 53.3333L65.9205 48.125C66.7949 46.875 66.8782 45.2083 66.1287 43.875Z" fill="#FFD600"/>
<path d="M125 70.8333C125 73.125 123.127 75 120.837 75C120.837 75 120.795 75 120.753 75H79.1173C77.7433 75 76.411 74.2917 75.6615 73.125L62.4629 53.3333L65.9187 48.125C66.793 46.875 66.8763 45.2083 66.1269 43.875C65.4191 42.5 64.0034 41.6667 62.4629 41.6667H104.099C105.473 41.6667 106.805 42.375 107.555 43.5417L123.834 67.9167C124.542 68.6667 125 69.7083 125 70.8333Z" fill="#FFD600"/>
</svg>
