<svg width="148" height="144" viewBox="0 0 148 144" fill="none" xmlns="http://www.w3.org/2000/svg">
<path d="M60.6667 129.033C60.6667 136.747 54.3987 143 46.6667 143C38.9347 143 32.6667 136.747 32.6667 129.033M60.6667 129.033C60.6667 121.319 54.3987 115.066 46.6667 115.066C38.9347 115.066 32.6667 121.319 32.6667 129.033M60.6667 129.033H88.6667M32.6667 129.033L23.3333 1H0M88.6667 129.033C88.6667 136.747 94.9347 143 102.667 143C110.399 143 116.667 136.747 116.667 129.033C116.667 121.319 110.399 115.066 102.667 115.066C94.9347 115.066 88.6667 121.319 88.6667 129.033ZM30.3333 96.4426L130.667 89.459L147 19.623H25.6667M100.333 73.1639L67.6667 40.5738M67.6667 73.1639L100.333 40.5738" stroke="#929EAF" stroke-miterlimit="10"/>
</svg>
