<svg width="19" height="22" viewBox="0 0 19 22" fill="none" xmlns="http://www.w3.org/2000/svg">
<path d="M11 1.5C11 0.65 10.35 0 9.5 0C8.65 0 8 0.65 8 1.5H0V2.5H19V1.5H11ZM9.5 1C9.8 1 10 1.2 10 1.5H9C9 1.2 9.2 1 9.5 1Z" fill="#929EAF"/>
<path d="M6.5 5H5.5V19H6.5V5Z" fill="#929EAF"/>
<path d="M13.5 5H12.5V19H13.5V5Z" fill="#929EAF"/>
<path d="M10 5H9V19H10V5Z" fill="#929EAF"/>
<path d="M16 20.5C16 20.8 15.8 21 15.5 21H3.5C3.2 21 3 20.8 3 20.5V3.5H2V20.5C2 21.35 2.65 22 3.5 22H15.5C16.35 22 17 21.35 17 20.5V3.5H16V20.5Z" fill="#929EAF"/>
</svg>
