<svg width="24" height="21" viewBox="0 0 24 21" fill="none" xmlns="http://www.w3.org/2000/svg">
<path d="M22.0544 2.52618L22.0563 2.52831C24.1288 4.88899 23.96 8.78814 21.6122 11.1881L21.6115 11.1888L12.9011 20.1307L12.8993 20.1325C12.7862 20.2498 12.6522 20.3422 12.5056 20.4051C12.3589 20.4679 12.2021 20.5 12.0441 20.5C11.886 20.5 11.7292 20.4679 11.5826 20.4051C11.4359 20.3422 11.302 20.2498 11.1889 20.1325L11.1871 20.1307L2.25087 10.957L2.25041 10.9565C1.67764 10.3701 1.22668 9.66914 0.925805 8.89616C0.624919 8.12316 0.480636 7.29484 0.502084 6.46198C0.523532 5.62913 0.710242 4.8099 1.05041 4.05449C1.39056 3.2991 1.87682 2.6238 2.47876 2.06946L2.47876 2.06946L2.48048 2.06786C4.76874 -0.0594073 8.54478 0.118293 10.8787 2.52447L10.8786 2.52449L10.8817 2.52764L11.6883 3.34455L12.0446 3.70547L12.4004 3.34402L13.4327 2.29529L13.4337 2.2943C14.0073 1.70832 14.6896 1.248 15.4391 0.940213C16.1885 0.632506 16.9901 0.483397 17.7962 0.501466C18.6019 0.521331 19.3954 0.710857 20.1276 1.05875C20.8601 1.40674 21.5161 1.90596 22.0544 2.52618Z" stroke="#929EAF" class="stroke-color"/>
</svg>
