<svg width="24" height="21" viewBox="0 0 24 21" fill="none" xmlns="http://www.w3.org/2000/svg">
<path d="M21.6064 10.4348L21.6127 10.4284C23.9472 8.0665 23.8176 4.16035 21.2357 1.97155C18.9685 0.0853534 15.5443 0.402826 13.4403 2.52808L13.4395 2.52891L12.5161 3.45876L12 3.97835L11.484 3.45875L10.5605 2.52891L10.5595 2.52783C8.4552 0.400101 4.9886 0.0886961 2.76887 1.96929L21.6064 10.4348ZM21.6064 10.4348L21.6002 10.4414M21.6064 10.4348L21.6002 10.4414M21.6002 10.4414L12.5683 20.0444C12.2615 20.3488 11.7385 20.3488 11.4317 20.0444L2.39937 10.4418L2.39322 10.4353M21.6002 10.4414L2.39322 10.4353M2.39322 10.4353L2.38692 10.4289M2.39322 10.4353L2.38692 10.4289M2.38692 10.4289C0.0521053 8.06625 0.18199 4.16286 2.76868 1.96945L2.38692 10.4289Z" stroke="#929EAF" stroke-width="1.45455"/>
</svg>
