<svg width="14" height="11" viewBox="0 0 14 11" fill="none" xmlns="http://www.w3.org/2000/svg">
<path d="M6.76547 0.597724C6.81565 0.45957 6.95892 0.363636 7.15232 0.363636C7.34573 0.363636 7.489 0.45957 7.53918 0.597724L8.53064 3.32742C8.6923 3.77249 9.13735 4.0405 9.60108 4.0405H12.8095C13.0311 4.0405 13.1549 4.16043 13.1964 4.27458C13.2351 4.38116 13.2161 4.51141 13.0617 4.61182L10.466 6.29886C10.069 6.55689 9.87845 7.03825 10.044 7.49417L10.3858 7.37003L10.0441 7.49417L11.0355 10.2239C11.0806 10.348 11.0386 10.4716 10.9008 10.5611C10.7596 10.6529 10.5634 10.6696 10.3965 10.5611L7.80082 8.87406C7.41179 8.62121 6.89286 8.62121 6.50383 8.87406L3.90816 10.5611C3.74122 10.6696 3.545 10.6529 3.40384 10.5611C3.26606 10.4716 3.22405 10.348 3.26914 10.2239L4.2606 7.49417C4.4262 7.03825 4.23565 6.55689 3.83866 6.29886L1.24299 4.61182C1.08851 4.51141 1.06958 4.38116 1.1083 4.27458C1.14976 4.16043 1.27353 4.0405 1.49515 4.0405H4.70357C5.1673 4.0405 5.61235 3.77249 5.77401 3.32742L6.76547 0.597724Z" stroke="#FFD600" stroke-width="0.727273"/>
</svg>
