<svg width="122" height="125" viewBox="0 0 122 125" fill="none" xmlns="http://www.w3.org/2000/svg">
<path fill-rule="evenodd" clip-rule="evenodd" d="M0.000777426 36.9575H121.24V121.986C121.249 122.385 121.177 122.78 121.03 123.15C120.882 123.52 120.66 123.856 120.379 124.137C120.098 124.419 119.763 124.64 119.394 124.789C119.025 124.937 118.63 125.008 118.232 124.999H3.00836C2.6109 125.008 2.21571 124.937 1.84668 124.789C1.47765 124.64 1.14245 124.419 0.861324 124.137C0.580202 123.856 0.359002 123.52 0.211092 123.15C0.0631827 122.78 -0.00836328 122.385 0.000777426 121.986V36.9575Z" fill="#FFEABB"/>
<path d="M69.4426 35.6854L60.6203 85.5645L8.55568 119.375C7.99019 119.704 7.54724 120.209 7.29397 120.813C7.0407 121.418 6.99091 122.088 7.15214 122.723C7.33933 123.359 7.7267 123.918 8.25659 124.316C8.78647 124.714 9.43054 124.93 10.0929 124.932H118.232C118.63 124.941 119.025 124.87 119.394 124.722C119.763 124.573 120.098 124.352 120.379 124.07C120.66 123.789 120.882 123.453 121.03 123.083C121.177 122.713 121.249 122.318 121.24 121.919V36.8905L69.4426 35.6854Z" fill="#F7BF75"/>
<path d="M23.9278 17.0727L5.08025 27.9859C3.53687 28.8863 2.25583 30.176 1.36466 31.7265C0.473481 33.2771 0.00325283 35.0344 0.000777616 36.8236C0.00533005 38.6465 0.444368 40.442 1.28137 42.0607C2.11836 43.6794 3.32912 45.0745 4.81291 46.1299L60.6203 85.5645L116.428 46.1968C117.911 45.1414 119.122 43.7464 119.959 42.1277C120.796 40.509 121.235 38.7135 121.24 36.8905C121.237 35.0934 120.76 33.329 119.856 31.7767C118.952 30.2244 117.654 28.9396 116.094 28.0529L93.3695 14.6625L23.9278 17.0727Z" fill="#FF8A00"/>
<path d="M23.5268 0C21.9314 0 20.4015 0.634846 19.2734 1.76488C18.1453 2.89491 17.5116 4.42756 17.5116 6.02567V55.1684L60.6203 85.5645L103.729 55.1684V6.02567C103.729 4.42756 103.095 2.89491 101.967 1.76488C100.839 0.634846 99.3092 0 97.7138 0H23.5268Z" fill="#EAE2F9"/>
<path d="M84.6141 0V39.1669C84.6289 41.3311 84.1198 43.4666 83.1304 45.3905C82.141 47.3145 80.7008 48.9695 78.9331 50.2139L44.7135 74.3166L60.6203 85.5645L103.729 55.1684V6.02567C103.729 4.42756 103.095 2.89491 101.967 1.76488C100.839 0.634846 99.3092 0 97.7138 0H84.6141Z" fill="#C0C3EE"/>
<path fill-rule="evenodd" clip-rule="evenodd" d="M0.000777616 120.781L58.4147 82.5517C59.0725 82.1278 59.8382 81.9025 60.6203 81.9025C61.4024 81.9025 62.1681 82.1278 62.8259 82.5517L121.24 120.513V121.652C121.24 122.451 120.923 123.217 120.359 123.782C119.795 124.347 119.03 124.664 118.232 124.664H3.00836C2.2107 124.664 1.44571 124.347 0.881678 123.782C0.317646 123.217 0.000777616 122.451 0.000777616 121.652V120.781Z" fill="#FF8A00"/>
<path d="M64.6304 65.2781H56.6102C55.7293 65.2953 54.8892 65.6535 54.2661 66.2776C53.6431 66.9017 53.2855 67.7432 53.2684 68.6257C53.2684 69.5135 53.6205 70.365 54.2472 70.9928C54.8739 71.6206 55.7239 71.9733 56.6102 71.9733H64.6304C65.5167 71.9733 66.3667 71.6206 66.9934 70.9928C67.6201 70.365 67.9722 69.5135 67.9722 68.6257C67.9551 67.7432 67.5975 66.9017 66.9745 66.2776C66.3514 65.6535 65.5113 65.2953 64.6304 65.2781Z" fill="#0D0DFF"/>
<path d="M72.3833 13.6582C69.4627 12.1012 66.2586 11.1504 62.9627 10.8628C59.6668 10.5752 56.3469 10.9567 53.2016 11.9844C47.6141 13.7757 42.8363 17.4835 39.7087 22.4556C36.5811 27.4277 35.3041 33.3454 36.1025 39.1676C36.9009 44.9898 39.7234 50.3434 44.0735 54.2866C48.4235 58.2297 54.0224 60.5097 59.8851 60.7254C60.7548 60.709 61.5854 60.3601 62.2066 59.7502C62.8279 59.1402 63.1929 58.3155 63.2269 57.4447C63.2451 56.5681 62.9192 55.7193 62.3193 55.0808C61.7194 54.4423 60.8934 54.0651 60.0188 54.0302C57.2768 53.951 54.5878 53.2535 52.1521 51.9896C49.7163 50.7257 47.5963 48.9278 45.95 46.7298C44.3036 44.5318 43.1732 41.9902 42.6427 39.2941C42.1123 36.598 42.1956 33.8168 42.8864 31.1574C43.5771 28.4979 44.8576 26.0288 46.6325 23.9336C48.4074 21.8383 50.6311 20.171 53.1381 19.0556C55.6451 17.9401 58.3709 17.4053 61.1128 17.4909C63.8546 17.5765 66.5419 18.2803 68.9747 19.55C72.8461 21.3562 75.8515 24.6174 77.3401 28.6273C78.8287 32.6373 78.6807 37.0732 76.9281 40.9746C76.6067 41.9019 76.0141 42.7108 75.2273 43.296C74.4405 43.8811 73.4961 44.2154 72.517 44.2552C72.3717 44.2501 72.2296 44.2111 72.102 44.1413C71.9744 44.0716 71.8648 43.9731 71.7818 43.8535C71.3712 43.4443 71.1322 42.8935 71.1134 42.3136C71.1134 40.9746 71.1134 22.6297 71.1134 23.2993C71.1134 22.4114 70.7614 21.56 70.1347 20.9322C69.5079 20.3044 68.658 19.9517 67.7717 19.9517C66.9723 19.9598 66.2023 20.2547 65.6014 20.783C65.0005 21.3112 64.6086 22.0377 64.4967 22.8306C62.9268 21.9433 61.153 21.4818 59.3504 21.4916C55.8867 21.8154 52.6855 23.4792 50.4267 26.1295C48.1679 28.7797 47.0295 32.2078 47.2533 35.6854C46.9755 39.2069 48.098 42.6957 50.3763 45.3918C52.6547 48.088 55.9043 49.7731 59.4173 50.08C61.8755 49.9905 64.2311 49.0702 66.1008 47.4689C66.3269 47.9535 66.6193 48.4042 66.9696 48.8079C67.6814 49.5443 68.5329 50.1309 69.474 50.5333C70.4151 50.9357 71.4269 51.1458 72.4501 51.1513C74.7778 51.1164 77.0401 50.3744 78.9377 49.0235C80.8352 47.6726 82.2786 45.7763 83.0769 43.5857C85.5261 38.1832 85.7794 32.0378 83.7833 26.4515C81.7872 20.8651 77.6985 16.2766 72.3833 13.6582ZM59.5509 43.2509C56.8775 43.2509 54.0705 40.1711 54.0705 35.5515C53.8974 33.8363 54.3914 32.1204 55.4496 30.7611C56.5079 29.4017 58.0488 28.5035 59.7514 28.2537C62.6922 28.2537 64.6973 31.1996 64.7641 35.3506V35.6854C64.6973 39.7694 62.4249 43.2509 59.5509 43.2509Z" fill="#0D0DFF"/>
</svg>
