<svg width="1158" height="922" viewBox="0 0 1158 922" fill="none" xmlns="http://www.w3.org/2000/svg">
<path d="M647.731 810.748L377.351 405.955L828.93 357.027L647.731 810.748Z" fill="#FF8A00"/>
<path d="M531.688 134.648L941.274 324.278L571.403 592.136L531.688 134.648Z" fill="#FF8A00"/>
<path d="M120.089 575.365L180.283 644.061H59.8955L120.089 575.365Z" fill="#FF8A00" fill-opacity="0.73"/>
<path d="M802.322 73.0508L916.422 300.334H688.223L802.322 73.0508Z" fill="url(#paint0_radial_129_637)"/>
<path d="M1016.21 245.899L1204 273.287L984.354 436.887L1016.21 245.899Z" fill="url(#paint1_radial_129_637)" fill-opacity="0.73"/>
<path d="M976.195 247.841L1014.11 626.159L626.423 378.292L976.195 247.841Z" fill="#FF8A00"/>
<path d="M399.257 166.358L575.196 288.935L307.484 362.641L399.257 166.358Z" fill="url(#paint2_radial_129_637)" fill-opacity="0.73"/>
<path d="M359.002 781.87L454.447 421.727L704.299 660.041L359.002 781.87Z" fill="#FF8A00"/>
<path d="M20.9178 473.623L454.534 331.316L413.42 709.587L20.9178 473.623Z" fill="#FF8A00"/>
<path d="M515.651 741.498L584.302 826.224L441.111 820.863L515.651 741.498Z" fill="url(#paint3_radial_129_637)" fill-opacity="0.73"/>
<path d="M262.065 324.044L418.097 396.719L209.266 490.681L262.065 324.044Z" fill="url(#paint4_radial_129_637)" fill-opacity="0.73"/>
<path d="M636.468 845.923L653.229 921.313L565.059 871.573L636.468 845.923Z" fill="url(#paint5_radial_129_637)" fill-opacity="0.73"/>
<path d="M226.768 651.788L292.728 659.497L243.878 717.301L226.768 651.788Z" fill="url(#paint6_radial_129_637)"/>
<path d="M727.744 716.573L765.539 718.697L730.012 755.162L727.744 716.573Z" fill="url(#paint7_radial_129_637)" fill-opacity="0.73"/>
<path d="M477.931 206.381L513.186 220.455L468.284 243.762L477.931 206.381Z" fill="url(#paint8_radial_129_637)"/>
<path d="M338.904 204.606L343.303 243.002L302.061 213.472L338.904 204.606Z" fill="url(#paint9_radial_129_637)"/>
<path d="M846.368 377.979L974.145 699.838L638.009 652.462L846.368 377.979Z" fill="url(#paint10_radial_129_637)"/>
<path d="M409.206 535.319L483.141 721.555L288.644 694.142L409.206 535.319Z" fill="url(#paint11_radial_129_637)"/>
<path d="M862.476 309.847L943.248 441.748L789.055 448.411L862.476 309.847Z" fill="url(#paint12_radial_129_637)"/>
<path d="M866.14 410.015L890.758 564.108L746.297 507.882L866.14 410.015Z" fill="url(#paint13_radial_129_637)"/>
<defs>
<radialGradient id="paint0_radial_129_637" cx="0" cy="0" r="1" gradientUnits="userSpaceOnUse" gradientTransform="translate(771.962 159.49) rotate(82.0213) scale(218.723 198.067)">
<stop stop-color="#FF8A00"/>
<stop offset="1" stop-color="#FFD600"/>
</radialGradient>
<radialGradient id="paint1_radial_129_637" cx="0" cy="0" r="1" gradientUnits="userSpaceOnUse" gradientTransform="translate(1016.64 309.191) rotate(38.48) scale(132.252 232.032)">
<stop stop-color="#FF8A00"/>
<stop offset="1" stop-color="#FFD600"/>
</radialGradient>
<radialGradient id="paint2_radial_129_637" cx="0" cy="0" r="1" gradientUnits="userSpaceOnUse" gradientTransform="translate(379.645 236.797) rotate(61.9534) scale(161.047 237.453)">
<stop stop-color="#FF8A00"/>
<stop offset="1" stop-color="#FFD600"/>
</radialGradient>
<radialGradient id="paint3_radial_129_637" cx="0" cy="0" r="1" gradientUnits="userSpaceOnUse" gradientTransform="translate(495.481 771.988) rotate(78.367) scale(80.559 121.973)">
<stop stop-color="#FF8A00"/>
<stop offset="1" stop-color="#FFD600"/>
</radialGradient>
<radialGradient id="paint4_radial_129_637" cx="0" cy="0" r="1" gradientUnits="userSpaceOnUse" gradientTransform="translate(253.912 382.051) rotate(52.8334) scale(127.414 195.603)">
<stop stop-color="#FF8A00"/>
<stop offset="1" stop-color="#FFD600"/>
</radialGradient>
<radialGradient id="paint5_radial_129_637" cx="0" cy="0" r="1" gradientUnits="userSpaceOnUse" gradientTransform="translate(614.346 858.519) rotate(104.644) scale(56.6025 85.7866)">
<stop stop-color="#FF8A00"/>
<stop offset="1" stop-color="#FFD600"/>
</radialGradient>
<radialGradient id="paint6_radial_129_637" cx="0" cy="0" r="1" gradientUnits="userSpaceOnUse" gradientTransform="translate(236.065 673.402) rotate(30.5522) scale(53.5118 65.3921)">
<stop stop-color="#FF8A00"/>
<stop offset="1" stop-color="#FFD600"/>
</radialGradient>
<radialGradient id="paint7_radial_129_637" cx="0" cy="0" r="1" gradientUnits="userSpaceOnUse" gradientTransform="translate(730.636 729.166) rotate(31.4183) scale(27.9089 43.5048)">
<stop stop-color="#FF8A00"/>
<stop offset="1" stop-color="#FFD600"/>
</radialGradient>
<radialGradient id="paint8_radial_129_637" cx="0" cy="0" r="1" gradientUnits="userSpaceOnUse" gradientTransform="translate(476.827 219.266) rotate(49.6818) scale(28.091 43.2229)">
<stop stop-color="#FF8A00"/>
<stop offset="1" stop-color="#FFD600"/>
</radialGradient>
<radialGradient id="paint9_radial_129_637" cx="0" cy="0" r="1" gradientUnits="userSpaceOnUse" gradientTransform="translate(327.248 209.664) rotate(110.66) scale(28.2673 42.9532)">
<stop stop-color="#FF8A00"/>
<stop offset="1" stop-color="#FFD600"/>
</radialGradient>
<radialGradient id="paint10_radial_129_637" cx="0" cy="0" r="1" gradientUnits="userSpaceOnUse" gradientTransform="translate(786.325 485.074) rotate(88.7531) scale(290.535 293.63)">
<stop stop-color="#FF8A00"/>
<stop offset="1" stop-color="#FFC700"/>
</radialGradient>
<radialGradient id="paint11_radial_129_637" cx="0" cy="0" r="1" gradientUnits="userSpaceOnUse" gradientTransform="translate(374.463 597.287) rotate(88.7531) scale(168.111 169.903)">
<stop stop-color="#FF8A00"/>
<stop offset="1" stop-color="#FFD600"/>
</radialGradient>
<radialGradient id="paint12_radial_129_637" cx="0" cy="0" r="1" gradientUnits="userSpaceOnUse" gradientTransform="translate(843.359 362.164) rotate(79.3723) scale(130.226 133.9)">
<stop stop-color="#FFD600"/>
<stop offset="1" stop-color="#FFAB08"/>
</radialGradient>
<radialGradient id="paint13_radial_129_637" cx="0" cy="0" r="1" gradientUnits="userSpaceOnUse" gradientTransform="translate(828.813 450.447) rotate(69.0106) scale(106.629 110.384)">
<stop stop-color="#FF8A00"/>
<stop offset="0.856579" stop-color="#FFAB08"/>
</radialGradient>
</defs>
</svg>
