<svg width="54" height="54" viewBox="0 0 54 54" fill="none" xmlns="http://www.w3.org/2000/svg">
<path d="M50.4 19.8H47.34C47.16 19.08 46.8 18.36 46.44 17.82L48.6 15.48C49.32 14.76 49.68 13.86 49.68 12.96C49.68 12.06 49.32 11.16 48.6 10.44L43.56 5.4C42.12 3.96 39.78 3.96 38.52 5.4L36.36 7.56C35.64 7.2 34.92 6.84 34.2 6.66V3.6C34.2 1.62 32.58 0 30.6 0H27H23.4C21.42 0 19.8 1.62 19.8 3.6V6.66C19.08 6.84 18.36 7.2 17.82 7.56L15.48 5.4C14.22 3.96 11.88 3.96 10.44 5.4L5.4 10.44C4.68 11.16 4.32 12.06 4.32 12.96C4.32 13.86 4.68 14.76 5.4 15.48L7.56 17.64C7.2 18.36 6.84 19.08 6.66 19.8H3.6C1.62 19.8 0 21.42 0 23.4V30.6C0 32.58 1.62 34.2 3.6 34.2H6.66C6.84 34.92 7.2 35.64 7.56 36.18L5.4 38.52C3.96 39.96 3.96 42.12 5.4 43.56L10.44 48.6C11.88 50.04 14.22 50.04 15.48 48.6L17.64 46.44C18.36 46.8 18.9 46.98 19.62 47.34V50.4C19.62 52.38 21.24 54 23.22 54H26.82H30.42C32.4 54 34.02 52.38 34.02 50.4V47.34C34.74 47.16 35.46 46.8 36 46.44L38.16 48.6C39.6 50.04 41.94 50.04 43.2 48.6L48.24 43.56C49.68 42.12 49.68 39.96 48.24 38.52L46.08 36.36C46.44 35.64 46.62 35.1 46.98 34.38H50.4C52.38 34.38 54 32.76 54 30.78V23.58C54 21.42 52.38 19.8 50.4 19.8ZM27 37.8C21.06 37.8 16.2 32.94 16.2 27C16.2 21.06 21.06 16.2 27 16.2C32.94 16.2 37.8 21.06 37.8 27C37.8 32.94 32.94 37.8 27 37.8Z" fill="#2222B1"/>
</svg>
