<svg width="54" height="54" viewBox="0 0 54 54" fill="none" xmlns="http://www.w3.org/2000/svg">
<path d="M46.8 28.8C45.8051 28.8 45 27.9949 45 27V21.6C45 11.6753 36.9247 3.6 27 3.6C17.0753 3.6 8.99999 11.6753 8.99999 21.6V27C8.99999 27.9949 8.19485 28.8 7.19999 28.8C6.20513 28.8 5.39999 27.9949 5.39999 27V21.6C5.39999 9.68904 15.089 0 27 0C38.911 0 48.6 9.68904 48.6 21.6V27C48.6 27.9949 47.7949 28.8 46.8 28.8Z" fill="#2222B1"/>
<path d="M41.4 50.4H32.4C31.4051 50.4 30.6 49.5949 30.6 48.6C30.6 47.6051 31.4051 46.8 32.4 46.8H41.4C42.3932 46.8 43.2 45.9932 43.2 45V43.2C43.2 42.2051 44.0051 41.4 45 41.4C45.9949 41.4 46.8 42.2051 46.8 43.2V45C46.8 47.9777 44.3777 50.4 41.4 50.4Z" fill="#2222B1"/>
<path d="M14.4 27V43.2C14.4 44.19 13.59 45 12.6 45H7.2C3.222 45 0 41.778 0 37.8V32.4C0 28.422 3.222 25.2 7.2 25.2H12.6C13.59 25.2 14.4 26.01 14.4 27Z" fill="#0D0DFF"/>
<path d="M54 32.4V37.8C54 41.778 50.778 45 46.8 45H41.4C40.41 45 39.6 44.19 39.6 43.2V27C39.6 26.01 40.41 25.2 41.4 25.2H46.8C50.778 25.2 54 28.422 54 32.4Z" fill="#0D0DFF"/>
<path d="M34.2 45V52.2C34.2 53.19 33.39 54 32.4 54H25.2C22.23 54 19.8 51.57 19.8 48.6C19.8 45.63 22.23 43.2 25.2 43.2H32.4C33.39 43.2 34.2 44.01 34.2 45Z" fill="#FF8A00"/>
</svg>
