<svg width="371" height="83" viewBox="0 0 371 83" fill="none" xmlns="http://www.w3.org/2000/svg">
<path d="M158.254 40.0765C158.254 40.0765 165.774 37.513 165.774 28.968C165.774 18.9703 158.682 14.0142 148.94 14.0142H123.391V68.3606H151.162C159.707 68.3606 168.081 62.3791 168.081 53.2359C168.081 42.3837 158.254 40.162 158.254 40.0765ZM136.721 25.2936H146.633C149.709 25.2936 151.76 27.3444 151.76 30.4206C151.76 32.8132 149.88 35.3768 146.377 35.3768H136.635V25.2936H136.721ZM146.719 56.9957H136.806V46.3144H146.462C151.333 46.3144 153.64 48.4507 153.64 51.6123C153.64 55.543 150.735 56.9957 146.719 56.9957Z" fill="#C4C4C4"/>
<path d="M197.477 12.6467C181.754 12.6467 172.525 25.2079 172.525 41.1017C172.525 57.0809 181.754 69.5567 197.477 69.5567C213.285 69.5567 222.428 57.0809 222.428 41.1017C222.428 25.2079 213.285 12.6467 197.477 12.6467ZM197.477 56.5682C189.786 56.5682 185.941 49.6467 185.941 41.1017C185.941 32.5567 189.786 25.7206 197.477 25.7206C205.167 25.7206 209.098 32.6421 209.098 41.1017C209.098 49.6467 205.167 56.5682 197.477 56.5682Z" fill="#C4C4C4"/>
<path d="M251.396 35.2913L249.516 34.8641C244.902 33.9241 241.227 32.7278 241.227 29.3953C241.227 25.8063 244.731 24.3537 247.807 24.3537C252.336 24.3537 256.352 26.5754 258.916 29.3953L267.375 21.0211C263.53 16.6631 257.292 12.4761 247.551 12.4761C236.1 12.4761 227.47 18.8849 227.47 29.5661C227.47 39.3075 234.477 44.0927 243.022 45.8872L244.902 46.3144C251.994 47.7671 254.643 48.8779 254.643 52.2959C254.643 55.5431 251.738 57.6793 247.294 57.6793C241.996 57.6793 237.211 55.3722 233.537 50.6724L224.906 59.2174C229.691 64.9426 235.758 69.386 247.465 69.386C257.634 69.386 268.486 63.5754 268.486 51.6978C268.571 39.3075 259.172 36.9149 251.396 35.2913Z" fill="#C4C4C4"/>
<path d="M298.82 56.5687C292.838 56.5687 286.6 51.6126 286.6 40.7604C286.6 31.1045 292.411 25.7211 298.478 25.7211C303.263 25.7211 306.083 27.9428 308.305 31.7881L319.242 24.5248C313.774 16.2361 307.279 12.7327 298.307 12.7327C281.901 12.7327 273.014 25.4648 273.014 40.8458C273.014 56.996 282.84 69.6426 298.136 69.6426C308.903 69.6426 314.03 65.8828 319.584 57.8505L308.561 50.4163C306.339 54.0052 303.947 56.5687 298.82 56.5687Z" fill="#C4C4C4"/>
<path d="M339.239 33.9241V13.9287H324.969V68.2751H339.239V46.8271H355.731V68.2751H370.001V13.9287H355.731V33.9241H339.239Z" fill="#C4C4C4"/>
<path d="M41.1871 0C18.4573 0 0 18.4573 0 41.1871C0 63.9169 18.4573 82.3742 41.1871 82.3742C63.9169 82.3742 82.3742 63.9169 82.3742 41.1871C82.3742 18.4573 63.9169 0 41.1871 0ZM41.1871 78.5289C20.5935 78.5289 3.84527 61.7806 3.84527 41.1871C3.84527 20.5935 20.5935 3.84527 41.1871 3.84527C61.7806 3.84527 78.5289 20.5935 78.5289 41.1871C78.5289 61.7806 61.7806 78.5289 41.1871 78.5289Z" fill="#C4C4C4"/>
<path d="M58.192 15.4666H55.3722V29.5659H27.0881V15.4666H24.1828C15.8941 21.0208 10.3398 30.4204 10.3398 41.1871C10.3398 51.9539 15.8941 61.3534 24.1828 66.9077H27.0881V52.8084H55.3722V66.9077H58.192C66.5662 61.3534 72.035 51.9539 72.035 41.1871C72.035 30.4204 66.5662 21.0208 58.192 15.4666ZM23.1574 61.3534C17.4322 56.3118 14.0997 49.0485 14.0997 41.1871C14.0997 33.3257 17.4322 26.0624 23.1574 21.0208V61.3534ZM55.3722 48.8776H27.0881V33.4111H55.3722C55.3722 33.4966 55.3722 48.8776 55.3722 48.8776ZM59.2175 61.2679V52.7229V29.5659V21.0208C64.8572 26.0624 68.1897 33.3257 68.1897 41.1017C68.1897 48.9631 64.8572 56.2264 59.2175 61.2679Z" fill="#C4C4C4"/>
</svg>
