<svg width="270" height="90" viewBox="0 0 270 90" fill="none" xmlns="http://www.w3.org/2000/svg">
<path d="M234.438 60.7331C234.557 59.5617 234.626 58.3786 234.626 57.1807C234.626 39.0445 220.739 24.3508 203.605 24.3508C186.477 24.3508 172.592 39.0445 172.592 57.1807C172.592 75.311 186.477 89.9991 203.605 89.9991C216.636 89.9991 227.774 81.5139 232.378 69.4582L219.008 66.9231C216.046 72.7888 210.442 76.74 204.036 76.74C195.533 76.74 188.491 69.8187 187.075 60.7327H234.438V60.7331ZM204.036 37.9759C211.297 37.9759 217.499 43.0362 220.03 50.1993H188.024C190.548 43.0366 196.763 37.9759 204.036 37.9759Z" fill="#C4C4C4"/>
<path d="M164.255 25.7263H148.414V88.8207H164.255V25.7263Z" fill="#C4C4C4"/>
<path d="M156.34 0C151.45 0 147.502 4.29586 147.502 9.56588C147.502 14.8278 151.45 19.1122 156.34 19.1122C161.21 19.1122 165.167 14.8278 165.167 9.56588C165.167 4.29586 161.21 0 156.34 0Z" fill="#C4C4C4"/>
<path d="M51.4601 5.49683V39.4623H17.3155V5.49683H0V88.7642H17.3155V54.7973H51.4601V88.7642H68.7898V5.49683H51.4601Z" fill="#C4C4C4"/>
<path d="M122.957 25.7553V29.1407C118.353 26.1216 112.957 24.3875 107.176 24.3875C90.3829 24.3875 76.7627 39.0719 76.7627 57.1937C76.7627 75.3119 90.3829 90 107.176 90C112.807 90 118.068 88.3447 122.591 85.4774V88.7645H138.048V25.7553H122.957ZM107.948 76.1681C98.1477 76.1681 90.2249 67.6807 90.2249 57.2011C90.2249 46.7126 98.1473 38.219 107.948 38.219C117.747 38.219 125.682 46.7126 125.682 57.2011C125.682 67.6807 117.746 76.1681 107.948 76.1681Z" fill="#C4C4C4"/>
<path d="M267.379 19.8662C252.792 22.6203 241.702 36.3552 241.531 52.9205V88.82H256.699L256.707 52.2457C256.707 43.8729 262.514 36.963 270 35.9715L267.379 19.8662Z" fill="#C4C4C4"/>
</svg>
