<svg width="170" height="70" viewBox="0 0 170 70" fill="none" xmlns="http://www.w3.org/2000/svg">
<path d="M37.3044 70C57.8899 70 74.6088 54.3477 74.6088 35.0077C74.6088 15.6668 57.8899 0 37.3044 0C16.6871 0 0 15.6668 0 35.0077C0 54.3477 16.6871 70 37.3044 70Z" fill="#C4C4C4"/>
<path d="M35.8037 19.6445V50.3556H46.2016V47.5941H38.8006V19.6445H35.8037Z" fill="white"/>
<path d="M25.3917 28.0239C27.8654 28.0239 29.8595 26.1352 29.8595 23.8287C29.8595 21.5204 27.8654 19.6245 25.3917 19.6245C22.9179 19.6245 20.9238 21.5204 20.9238 23.8287C20.9238 26.137 22.9179 28.0239 25.3917 28.0239Z" fill="white"/>
<path d="M38.7999 5.71315C38.4099 5.69502 37.6687 5.67236 37.3145 5.67236C20.0956 5.67236 6.08203 18.8351 6.08203 34.9932C6.08203 42.8415 9.32988 50.1978 15.2127 55.7297C21.1196 61.249 28.9579 64.2986 37.3145 64.2986C45.6392 64.2986 53.4755 61.249 59.3718 55.7297C65.2691 50.1978 68.5324 42.8415 68.5324 34.9932V33.689H67.269H46.2308V36.3879H65.5577C65.5577 36.4468 65.5577 36.7332 65.5442 36.8075C64.5616 50.621 52.2748 61.5616 37.3145 61.5616C29.7416 61.5616 22.6407 58.7966 17.2965 53.7749C11.9349 48.774 8.98048 42.112 8.98048 34.9923C8.98048 27.9133 11.9349 21.2168 17.2965 16.2006C22.6407 11.1889 29.7416 8.42382 37.3145 8.42382C37.6407 8.42382 38.4341 8.42382 38.7999 8.44195V5.71315Z" fill="white"/>
<path d="M102.664 11.7833H91.4541V57.3491H125.884V48.4794H102.664V11.7833ZM150.544 39.9848H159.673V47.9519C157.99 48.5537 154.707 49.1536 151.584 49.1536C141.495 49.1536 138.134 44.3422 138.134 34.5698C138.134 25.2506 141.335 19.7558 151.424 19.7558C157.031 19.7558 160.233 21.4107 162.872 24.569L169.842 18.5523C165.597 12.8427 158.148 11.1135 151.185 11.1135C135.487 11.1135 127.241 19.1576 127.241 34.4937C127.241 49.7554 134.688 58.0252 151.105 58.0252C158.631 58.0252 165.998 56.2217 170 53.5908V31.4867H150.544V39.9848Z" fill="#C4C4C4"/>
</svg>
