<svg width="270" height="91" viewBox="0 0 270 91" fill="none" xmlns="http://www.w3.org/2000/svg">
<path d="M269.832 21.4304C273.51 42.5927 216.128 70.3048 141.652 83.326C67.1869 96.3472 3.839 89.7414 0.166821 68.5679C-3.50536 47.4056 53.8934 19.6991 128.358 6.68343C202.829 -6.34901 266.165 0.262461 269.832 21.4304Z" fill="#C4C4C4"/>
<path d="M199.743 52.8404L199.363 30.8376H206.272V58.5722H196.338L189.44 35.8131H189.29L189.675 58.5722H182.805V30.8376H193.174L199.592 52.8404H199.743Z" fill="white"/>
<path d="M74.1184 33.4374L70.2955 58.8635H62.7559L67.9293 30.8376H80.3466L85.5033 58.8635H77.9915L74.2747 33.4374H74.1184Z" fill="white"/>
<path d="M106.672 52.2633L110.121 30.8376H121.506L122.109 58.8635H115.133L114.949 33.6671H114.804L110.138 58.8635H103.056L98.3848 33.6671H98.2341L98.0611 58.8635H91.0684L91.6878 30.8376H103.078L106.522 52.2633H106.672Z" fill="white"/>
<path d="M51.0033 50.9578C51.2768 51.6358 51.1931 52.5098 51.0647 53.0365C50.8303 53.9666 50.1997 54.9191 48.3468 54.9191C46.5945 54.9191 45.5341 53.9106 45.5341 52.3753V49.6635H38.0446L38.0391 51.8319C38.0391 58.0791 42.939 59.9673 48.1906 59.9673C53.2412 59.9673 57.3989 58.236 58.0575 53.5632C58.3979 51.1427 58.1412 49.5571 58.0296 48.9576C56.852 43.0913 46.254 41.3376 45.4671 38.0598C45.3332 37.4995 45.3723 36.9 45.4392 36.5807C45.6346 35.6898 46.2429 34.7037 47.9897 34.7037C49.6193 34.7037 50.5848 35.7178 50.5848 37.2474C50.5848 37.7629 50.5848 38.9787 50.5848 38.9787H57.544V37.0121C57.544 30.9049 52.086 29.9524 48.1348 29.9524C43.1678 29.9524 39.1106 31.5997 38.3683 36.1604C38.1674 37.4211 38.1395 38.5417 38.4297 39.948C39.6519 45.6686 49.5635 47.3271 51.0033 50.9578Z" fill="white"/>
<path d="M141.775 50.9075C142.049 51.5798 141.959 52.4315 141.836 52.9581C141.608 53.8882 140.983 54.8239 139.141 54.8239C137.416 54.8239 136.362 53.8154 136.362 52.3138L136.356 49.6244H128.945L128.934 51.7647C128.934 57.9504 133.789 59.8161 138.985 59.8161C143.98 59.8161 148.098 58.1072 148.751 53.4792C149.092 51.0756 148.852 49.5123 148.729 48.924C147.557 43.1138 137.07 41.3769 136.289 38.1272C136.155 37.5669 136.194 36.9786 136.261 36.676C136.462 35.7739 137.059 34.8158 138.789 34.8158C140.408 34.8158 141.351 35.8019 141.351 37.3259C141.351 37.8358 141.351 39.0404 141.351 39.0404H148.26V37.0906C148.26 31.0507 142.847 30.1038 138.929 30.1038C134.018 30.1038 129.994 31.7286 129.268 36.2614C129.068 37.5052 129.045 38.6034 129.335 40.0042C130.535 45.6687 140.352 47.316 141.775 50.9075Z" fill="white"/>
<path d="M165.221 54.6725C167.157 54.6725 167.76 53.3278 167.894 52.6386C167.95 52.3361 167.966 51.9327 167.961 51.5685V30.8264H175.02V50.9298C175.037 51.4452 174.987 52.5042 174.959 52.7675C174.462 58.0007 170.344 59.6983 165.215 59.6983C160.081 59.6983 155.956 58.0007 155.465 52.7675C155.443 52.5042 155.393 51.4396 155.404 50.9298V30.8264H162.458V51.5629C162.458 51.9271 162.469 52.3361 162.525 52.633C162.681 53.3222 163.267 54.6725 165.221 54.6725Z" fill="white"/>
<path d="M223.456 54.3756C225.476 54.3756 226.185 53.0926 226.313 52.3474C226.363 52.028 226.38 51.6358 226.374 51.2828V47.2151H223.511V43.1249H233.412V50.6497C233.406 51.1763 233.395 51.563 233.311 52.4986C232.848 57.5973 228.439 59.4183 223.495 59.4183C218.539 59.4183 214.141 57.5973 213.667 52.4986C213.589 51.563 213.578 51.1763 213.566 50.6497L213.572 38.8499C213.572 38.3512 213.633 37.4716 213.689 37.0009C214.309 31.7622 218.539 30.0757 223.495 30.0757C228.445 30.0757 232.781 31.751 233.295 37.0009C233.384 37.8918 233.356 38.8499 233.356 38.8499V39.7856H226.319V38.2168C226.324 38.2224 226.307 37.55 226.229 37.1522C226.112 36.5303 225.576 35.1071 223.444 35.1071C221.407 35.1071 220.816 36.4518 220.665 37.1522C220.581 37.522 220.548 38.0206 220.548 38.4745V51.294C220.542 51.647 220.565 52.0392 220.621 52.3586C220.732 53.0926 221.435 54.3756 223.456 54.3756Z" fill="white"/>
</svg>
